<mxfile modified="2021-01-28T10:46:42.194Z" host="app.diagrams.net" agent="5.0 (Windows)" etag="Bds8ZTvmGzX5YtpU4f8D" version="14.2.7" type="github">
  <diagram id="l8hXMBHkgcEJcSW0mbfh" name="Page-1">
    <mxGraphModel dx="2842" dy="1808" grid="1" gridSize="10" guides="1" tooltips="1" connect="1" arrows="1" fold="1" page="1" pageScale="1" pageWidth="1169" pageHeight="827" math="0" shadow="0">
      <root>
        <mxCell id="0" />
        <mxCell id="1" parent="0" />
        <mxCell id="jPe1b7YD5CnacBzU_eQK-82" value="" style="group" vertex="1" connectable="0" parent="1">
          <mxGeometry x="-140" y="70" width="1140" height="750" as="geometry" />
        </mxCell>
        <mxCell id="jPe1b7YD5CnacBzU_eQK-10" value="" style="rounded=1;whiteSpace=wrap;html=1;labelBackgroundColor=#CCFF99;strokeColor=#82b366;fillColor=#67AB9F;" vertex="1" parent="jPe1b7YD5CnacBzU_eQK-82">
          <mxGeometry y="400" width="1140" height="300" as="geometry" />
        </mxCell>
        <mxCell id="jPe1b7YD5CnacBzU_eQK-11" value="" style="rounded=1;whiteSpace=wrap;html=1;labelBackgroundColor=#CCFF99;strokeColor=#9673a6;fillColor=#e1d5e7;" vertex="1" parent="jPe1b7YD5CnacBzU_eQK-82">
          <mxGeometry width="1140" height="300" as="geometry" />
        </mxCell>
        <mxCell id="jPe1b7YD5CnacBzU_eQK-14" value="&lt;h1&gt;Main Tangle&lt;/h1&gt;&lt;div&gt;hier handelt es sich um den öffentlichen Tangle. Wird in der Teststellung dafür verwendet, um Iota Identity anzuwenden. Jedes Produkt bekommt eine digitale ID.&lt;br&gt;&lt;/div&gt;" style="text;html=1;strokeColor=none;fillColor=none;spacing=5;spacingTop=-20;whiteSpace=wrap;overflow=hidden;rounded=0;labelBackgroundColor=none;" vertex="1" parent="jPe1b7YD5CnacBzU_eQK-82">
          <mxGeometry x="18" width="202" height="130" as="geometry" />
        </mxCell>
        <mxCell id="jPe1b7YD5CnacBzU_eQK-15" value="&lt;h1&gt;Deposy Tangle&lt;/h1&gt;&lt;div&gt;hier handelt es sich um den Deposy Tangle. Wird in der Teststellung dafür verwendet, das entweder die Tokens den Pfandbetrag wiederspiegeln oder Pfand valide oder nicht valide ist. &lt;br&gt;&lt;br&gt;&lt;/div&gt;" style="text;html=1;strokeColor=none;fillColor=none;spacing=5;spacingTop=-20;whiteSpace=wrap;overflow=hidden;rounded=0;labelBackgroundColor=none;" vertex="1" parent="jPe1b7YD5CnacBzU_eQK-82">
          <mxGeometry x="21" y="400" width="202" height="350" as="geometry" />
        </mxCell>
        <mxCell id="jPe1b7YD5CnacBzU_eQK-5" value="" style="endArrow=none;dashed=1;html=1;strokeWidth=3;" edge="1" parent="jPe1b7YD5CnacBzU_eQK-82">
          <mxGeometry width="50" height="50" relative="1" as="geometry">
            <mxPoint x="-40" y="330" as="sourcePoint" />
            <mxPoint x="1190" y="330" as="targetPoint" />
          </mxGeometry>
        </mxCell>
        <mxCell id="jPe1b7YD5CnacBzU_eQK-9" value="" style="endArrow=none;dashed=1;html=1;strokeWidth=3;" edge="1" parent="jPe1b7YD5CnacBzU_eQK-82">
          <mxGeometry width="50" height="50" relative="1" as="geometry">
            <mxPoint x="-40" y="370" as="sourcePoint" />
            <mxPoint x="1190" y="370" as="targetPoint" />
          </mxGeometry>
        </mxCell>
        <mxCell id="jPe1b7YD5CnacBzU_eQK-76" value="" style="fontColor=#0066CC;verticalAlign=top;verticalLabelPosition=bottom;labelPosition=center;align=center;html=1;outlineConnect=0;fillColor=#CCCCCC;strokeColor=#6881B3;gradientColor=none;gradientDirection=north;strokeWidth=2;shape=mxgraph.networks.mainframe;labelBackgroundColor=none;" vertex="1" parent="jPe1b7YD5CnacBzU_eQK-82">
          <mxGeometry x="980" y="320" width="80" height="67" as="geometry" />
        </mxCell>
        <mxCell id="jPe1b7YD5CnacBzU_eQK-92" value="" style="endArrow=classic;html=1;labelBackgroundColor=none;strokeColor=#FF3333;strokeWidth=2;fontSize=13;fontColor=#330000;" edge="1" parent="jPe1b7YD5CnacBzU_eQK-82">
          <mxGeometry width="50" height="50" relative="1" as="geometry">
            <mxPoint x="1060" y="350" as="sourcePoint" />
            <mxPoint x="1260" y="350" as="targetPoint" />
          </mxGeometry>
        </mxCell>
        <mxCell id="jPe1b7YD5CnacBzU_eQK-59" value="" style="endArrow=none;html=1;strokeWidth=2;fontSize=9;fontColor=#330000;entryX=0;entryY=0.5;entryDx=0;entryDy=0;entryPerimeter=0;exitX=0.88;exitY=0.5;exitDx=0;exitDy=0;exitPerimeter=0;fillColor=#f5f5f5;strokeColor=#666666;" edge="1" parent="1" source="jPe1b7YD5CnacBzU_eQK-44" target="jPe1b7YD5CnacBzU_eQK-43">
          <mxGeometry width="50" height="50" relative="1" as="geometry">
            <mxPoint x="290" y="720" as="sourcePoint" />
            <mxPoint x="340" y="670" as="targetPoint" />
          </mxGeometry>
        </mxCell>
        <mxCell id="8--HhbSZYtI3ddgJnD71-25" style="edgeStyle=none;rounded=0;orthogonalLoop=1;jettySize=auto;html=1;sourcePerimeterSpacing=5;endArrow=none;endFill=0;targetPerimeterSpacing=5;" parent="1" target="8--HhbSZYtI3ddgJnD71-12" edge="1">
          <mxGeometry relative="1" as="geometry">
            <mxPoint x="85" y="-117.7874015748032" as="sourcePoint" />
          </mxGeometry>
        </mxCell>
        <mxCell id="8--HhbSZYtI3ddgJnD71-24" style="edgeStyle=none;rounded=0;orthogonalLoop=1;jettySize=auto;html=1;sourcePerimeterSpacing=5;endArrow=none;endFill=0;targetPerimeterSpacing=5;" parent="1" target="8--HhbSZYtI3ddgJnD71-12" edge="1">
          <mxGeometry relative="1" as="geometry">
            <mxPoint x="53" y="-193.70440251572336" as="sourcePoint" />
          </mxGeometry>
        </mxCell>
        <mxCell id="8--HhbSZYtI3ddgJnD71-26" style="edgeStyle=none;rounded=0;orthogonalLoop=1;jettySize=auto;html=1;sourcePerimeterSpacing=5;endArrow=none;endFill=0;targetPerimeterSpacing=5;" parent="1" target="8--HhbSZYtI3ddgJnD71-7" edge="1">
          <mxGeometry relative="1" as="geometry">
            <mxPoint x="978.8666666666668" y="-42" as="sourcePoint" />
          </mxGeometry>
        </mxCell>
        <mxCell id="8--HhbSZYtI3ddgJnD71-27" style="edgeStyle=none;rounded=0;orthogonalLoop=1;jettySize=auto;html=1;sourcePerimeterSpacing=5;endArrow=none;endFill=0;targetPerimeterSpacing=5;" parent="1" target="8--HhbSZYtI3ddgJnD71-3" edge="1">
          <mxGeometry relative="1" as="geometry">
            <mxPoint x="1004" y="-42" as="sourcePoint" />
          </mxGeometry>
        </mxCell>
        <mxCell id="8--HhbSZYtI3ddgJnD71-28" style="edgeStyle=none;rounded=0;orthogonalLoop=1;jettySize=auto;html=1;sourcePerimeterSpacing=5;endArrow=none;endFill=0;targetPerimeterSpacing=5;" parent="1" target="8--HhbSZYtI3ddgJnD71-13" edge="1">
          <mxGeometry relative="1" as="geometry">
            <mxPoint x="1033" y="-40.61904761904748" as="sourcePoint" />
          </mxGeometry>
        </mxCell>
        <mxCell id="8--HhbSZYtI3ddgJnD71-29" style="edgeStyle=none;rounded=0;orthogonalLoop=1;jettySize=auto;html=1;sourcePerimeterSpacing=5;endArrow=none;endFill=0;targetPerimeterSpacing=5;" parent="1" target="8--HhbSZYtI3ddgJnD71-6" edge="1">
          <mxGeometry relative="1" as="geometry">
            <mxPoint x="1033" y="-17.438775510204096" as="sourcePoint" />
          </mxGeometry>
        </mxCell>
        <mxCell id="8--HhbSZYtI3ddgJnD71-30" style="edgeStyle=none;rounded=0;orthogonalLoop=1;jettySize=auto;html=1;sourcePerimeterSpacing=5;endArrow=none;endFill=0;targetPerimeterSpacing=5;" parent="1" source="8--HhbSZYtI3ddgJnD71-11" edge="1">
          <mxGeometry relative="1" as="geometry">
            <mxPoint x="1149" y="53.66666666666674" as="targetPoint" />
          </mxGeometry>
        </mxCell>
        <mxCell id="8--HhbSZYtI3ddgJnD71-20" style="rounded=0;orthogonalLoop=1;jettySize=auto;html=1;endArrow=none;endFill=0;sourcePerimeterSpacing=5;targetPerimeterSpacing=5;" parent="1" target="8--HhbSZYtI3ddgJnD71-12" edge="1">
          <mxGeometry relative="1" as="geometry">
            <mxPoint x="232.29166666666652" y="-252" as="sourcePoint" />
          </mxGeometry>
        </mxCell>
        <mxCell id="8--HhbSZYtI3ddgJnD71-22" style="edgeStyle=none;rounded=0;orthogonalLoop=1;jettySize=auto;html=1;sourcePerimeterSpacing=5;endArrow=none;endFill=0;targetPerimeterSpacing=5;" parent="1" target="8--HhbSZYtI3ddgJnD71-12" edge="1">
          <mxGeometry relative="1" as="geometry">
            <mxPoint x="158.57692307692332" y="-288" as="sourcePoint" />
          </mxGeometry>
        </mxCell>
        <mxCell id="jPe1b7YD5CnacBzU_eQK-18" value="id2&#xa;" style="shape=image;verticalLabelPosition=bottom;verticalAlign=top;imageAspect=0;aspect=fixed;image=data:image/svg+xml,PHN2ZyB4bWxucz0iaHR0cDovL3d3dy53My5vcmcvMjAwMC9zdmciIHZlcnNpb249IjEiIHZpZXdCb3g9IjAgMCA0OCA0OCIgZW5hYmxlLWJhY2tncm91bmQ9Im5ldyAwIDAgNDggNDgiPiYjeGE7ICAgIDxwb2x5Z29uIGZpbGw9IiM0MkE1RjUiIHBvaW50cz0iMzYsNDQgOCw0NCA4LDggMjgsOCAzNiwxNiIvPiYjeGE7ICAgIDxwb2x5Z29uIGZpbGw9IiM5MENBRjkiIHBvaW50cz0iNDAsNDAgMTIsNDAgMTIsNCAzMiw0IDQwLDEyIi8+JiN4YTsgICAgPHBvbHlnb24gZmlsbD0iI0UxRjVGRSIgcG9pbnRzPSIzOC41LDEzIDMxLDEzIDMxLDUuNSIvPiYjeGE7ICAgIDxwYXRoIGZpbGw9IiMxOTc2RDIiIGQ9Ik0yMy40LDI5LjljMC0wLjIsMC0wLjQsMC4xLTAuNnMwLjItMC4zLDAuMy0wLjVzMC4zLTAuMiwwLjUtMC4zczAuNC0wLjEsMC42LTAuMXMwLjUsMCwwLjcsMC4xIHMwLjQsMC4yLDAuNSwwLjNzMC4yLDAuMywwLjMsMC41czAuMSwwLjQsMC4xLDAuNnMwLDAuNC0wLjEsMC42cy0wLjIsMC4zLTAuMywwLjVzLTAuMywwLjItMC41LDAuM3MtMC40LDAuMS0wLjcsMC4xIHMtMC41LDAtMC42LTAuMXMtMC40LTAuMi0wLjUtMC4zcy0wLjItMC4zLTAuMy0wLjVTMjMuNCwzMC4xLDIzLjQsMjkuOXogTTI2LjEsMjYuOGgtMi4zTDIzLjQsMTdoM0wyNi4xLDI2Ljh6Ii8+JiN4YTs8L3N2Zz4=;labelBackgroundColor=none;fillColor=none;fontStyle=1;fontSize=14;" vertex="1" parent="1">
          <mxGeometry x="650" y="269" width="48" height="48" as="geometry" />
        </mxCell>
        <mxCell id="jPe1b7YD5CnacBzU_eQK-19" value="Produkt ID" style="shape=image;verticalLabelPosition=bottom;verticalAlign=top;imageAspect=0;aspect=fixed;image=data:image/svg+xml,PHN2ZyB4bWxucz0iaHR0cDovL3d3dy53My5vcmcvMjAwMC9zdmciIHZlcnNpb249IjEiIHZpZXdCb3g9IjAgMCA0OCA0OCIgZW5hYmxlLWJhY2tncm91bmQ9Im5ldyAwIDAgNDggNDgiPiYjeGE7ICAgIDxwb2x5Z29uIGZpbGw9IiM0MkE1RjUiIHBvaW50cz0iMzYsNDQgOCw0NCA4LDggMjgsOCAzNiwxNiIvPiYjeGE7ICAgIDxwb2x5Z29uIGZpbGw9IiM5MENBRjkiIHBvaW50cz0iNDAsNDAgMTIsNDAgMTIsNCAzMiw0IDQwLDEyIi8+JiN4YTsgICAgPHBvbHlnb24gZmlsbD0iI0UxRjVGRSIgcG9pbnRzPSIzOC41LDEzIDMxLDEzIDMxLDUuNSIvPiYjeGE7ICAgIDxwYXRoIGZpbGw9IiMxOTc2RDIiIGQ9Ik0yMy40LDI5LjljMC0wLjIsMC0wLjQsMC4xLTAuNnMwLjItMC4zLDAuMy0wLjVzMC4zLTAuMiwwLjUtMC4zczAuNC0wLjEsMC42LTAuMXMwLjUsMCwwLjcsMC4xIHMwLjQsMC4yLDAuNSwwLjNzMC4yLDAuMywwLjMsMC41czAuMSwwLjQsMC4xLDAuNnMwLDAuNC0wLjEsMC42cy0wLjIsMC4zLTAuMywwLjVzLTAuMywwLjItMC41LDAuM3MtMC40LDAuMS0wLjcsMC4xIHMtMC41LDAtMC42LTAuMXMtMC40LTAuMi0wLjUtMC4zcy0wLjItMC4zLTAuMy0wLjVTMjMuNCwzMC4xLDIzLjQsMjkuOXogTTI2LjEsMjYuOGgtMi4zTDIzLjQsMTdoM0wyNi4xLDI2Ljh6Ii8+JiN4YTs8L3N2Zz4=;labelBackgroundColor=none;fillColor=none;" vertex="1" parent="1">
          <mxGeometry x="224" y="-36" width="48" height="48" as="geometry" />
        </mxCell>
        <mxCell id="jPe1b7YD5CnacBzU_eQK-20" value="id3" style="shape=image;verticalLabelPosition=bottom;verticalAlign=top;imageAspect=0;aspect=fixed;image=data:image/svg+xml,PHN2ZyB4bWxucz0iaHR0cDovL3d3dy53My5vcmcvMjAwMC9zdmciIHZlcnNpb249IjEiIHZpZXdCb3g9IjAgMCA0OCA0OCIgZW5hYmxlLWJhY2tncm91bmQ9Im5ldyAwIDAgNDggNDgiPiYjeGE7ICAgIDxwb2x5Z29uIGZpbGw9IiM0MkE1RjUiIHBvaW50cz0iMzYsNDQgOCw0NCA4LDggMjgsOCAzNiwxNiIvPiYjeGE7ICAgIDxwb2x5Z29uIGZpbGw9IiM5MENBRjkiIHBvaW50cz0iNDAsNDAgMTIsNDAgMTIsNCAzMiw0IDQwLDEyIi8+JiN4YTsgICAgPHBvbHlnb24gZmlsbD0iI0UxRjVGRSIgcG9pbnRzPSIzOC41LDEzIDMxLDEzIDMxLDUuNSIvPiYjeGE7ICAgIDxwYXRoIGZpbGw9IiMxOTc2RDIiIGQ9Ik0yMy40LDI5LjljMC0wLjIsMC0wLjQsMC4xLTAuNnMwLjItMC4zLDAuMy0wLjVzMC4zLTAuMiwwLjUtMC4zczAuNC0wLjEsMC42LTAuMXMwLjUsMCwwLjcsMC4xIHMwLjQsMC4yLDAuNSwwLjNzMC4yLDAuMywwLjMsMC41czAuMSwwLjQsMC4xLDAuNnMwLDAuNC0wLjEsMC42cy0wLjIsMC4zLTAuMywwLjVzLTAuMywwLjItMC41LDAuM3MtMC40LDAuMS0wLjcsMC4xIHMtMC41LDAtMC42LTAuMXMtMC40LTAuMi0wLjUtMC4zcy0wLjItMC4zLTAuMy0wLjVTMjMuNCwzMC4xLDIzLjQsMjkuOXogTTI2LjEsMjYuOGgtMi4zTDIzLjQsMTdoM0wyNi4xLDI2Ljh6Ii8+JiN4YTs8L3N2Zz4=;labelBackgroundColor=none;fillColor=none;fontSize=14;fontStyle=1" vertex="1" parent="1">
          <mxGeometry x="745" y="221" width="48" height="48" as="geometry" />
        </mxCell>
        <mxCell id="jPe1b7YD5CnacBzU_eQK-21" value="id1" style="shape=image;verticalLabelPosition=bottom;verticalAlign=top;imageAspect=0;aspect=fixed;image=data:image/svg+xml,PHN2ZyB4bWxucz0iaHR0cDovL3d3dy53My5vcmcvMjAwMC9zdmciIHZlcnNpb249IjEiIHZpZXdCb3g9IjAgMCA0OCA0OCIgZW5hYmxlLWJhY2tncm91bmQ9Im5ldyAwIDAgNDggNDgiPiYjeGE7ICAgIDxwb2x5Z29uIGZpbGw9IiM0MkE1RjUiIHBvaW50cz0iMzYsNDQgOCw0NCA4LDggMjgsOCAzNiwxNiIvPiYjeGE7ICAgIDxwb2x5Z29uIGZpbGw9IiM5MENBRjkiIHBvaW50cz0iNDAsNDAgMTIsNDAgMTIsNCAzMiw0IDQwLDEyIi8+JiN4YTsgICAgPHBvbHlnb24gZmlsbD0iI0UxRjVGRSIgcG9pbnRzPSIzOC41LDEzIDMxLDEzIDMxLDUuNSIvPiYjeGE7ICAgIDxwYXRoIGZpbGw9IiMxOTc2RDIiIGQ9Ik0yMy40LDI5LjljMC0wLjIsMC0wLjQsMC4xLTAuNnMwLjItMC4zLDAuMy0wLjVzMC4zLTAuMiwwLjUtMC4zczAuNC0wLjEsMC42LTAuMXMwLjUsMCwwLjcsMC4xIHMwLjQsMC4yLDAuNSwwLjNzMC4yLDAuMywwLjMsMC41czAuMSwwLjQsMC4xLDAuNnMwLDAuNC0wLjEsMC42cy0wLjIsMC4zLTAuMywwLjVzLTAuMywwLjItMC41LDAuM3MtMC40LDAuMS0wLjcsMC4xIHMtMC41LDAtMC42LTAuMXMtMC40LTAuMi0wLjUtMC4zcy0wLjItMC4zLTAuMy0wLjVTMjMuNCwzMC4xLDIzLjQsMjkuOXogTTI2LjEsMjYuOGgtMi4zTDIzLjQsMTdoM0wyNi4xLDI2Ljh6Ii8+JiN4YTs8L3N2Zz4=;labelBackgroundColor=none;fillColor=none;fontSize=14;fontStyle=1" vertex="1" parent="1">
          <mxGeometry x="585" y="200" width="48" height="48" as="geometry" />
        </mxCell>
        <mxCell id="jPe1b7YD5CnacBzU_eQK-26" value="" style="group;fontSize=13;" vertex="1" connectable="0" parent="1">
          <mxGeometry x="330" y="350" width="180" height="150" as="geometry" />
        </mxCell>
        <mxCell id="jPe1b7YD5CnacBzU_eQK-24" value="" style="ellipse;whiteSpace=wrap;html=1;aspect=fixed;labelBackgroundColor=none;fillColor=none;strokeWidth=7;" vertex="1" parent="jPe1b7YD5CnacBzU_eQK-26">
          <mxGeometry y="-5" width="150" height="150" as="geometry" />
        </mxCell>
        <mxCell id="jPe1b7YD5CnacBzU_eQK-25" value="Gateway" style="text;html=1;strokeColor=none;fillColor=none;align=center;verticalAlign=middle;whiteSpace=wrap;rounded=0;labelBackgroundColor=none;fontStyle=1;fontSize=27;" vertex="1" parent="jPe1b7YD5CnacBzU_eQK-26">
          <mxGeometry x="-3.75" y="51.25" width="157.5" height="37.5" as="geometry" />
        </mxCell>
        <mxCell id="jPe1b7YD5CnacBzU_eQK-52" value="mqtt" style="text;html=1;strokeColor=none;fillColor=none;align=center;verticalAlign=middle;whiteSpace=wrap;rounded=0;labelBackgroundColor=none;fontSize=13;fontColor=#330000;" vertex="1" parent="jPe1b7YD5CnacBzU_eQK-26">
          <mxGeometry x="50" y="120" width="40" height="20" as="geometry" />
        </mxCell>
        <mxCell id="jPe1b7YD5CnacBzU_eQK-53" value="mqtt" style="text;html=1;strokeColor=none;fillColor=none;align=center;verticalAlign=middle;whiteSpace=wrap;rounded=0;labelBackgroundColor=none;fontSize=13;fontColor=#330000;" vertex="1" parent="jPe1b7YD5CnacBzU_eQK-26">
          <mxGeometry x="55" width="40" height="20" as="geometry" />
        </mxCell>
        <mxCell id="jPe1b7YD5CnacBzU_eQK-27" value="id1" style="shape=image;verticalLabelPosition=bottom;verticalAlign=top;imageAspect=0;aspect=fixed;image=data:image/svg+xml,PHN2ZyB4bWxucz0iaHR0cDovL3d3dy53My5vcmcvMjAwMC9zdmciIHZlcnNpb249IjEiIHZpZXdCb3g9IjAgMCA0OCA0OCIgZW5hYmxlLWJhY2tncm91bmQ9Im5ldyAwIDAgNDggNDgiPiYjeGE7ICAgIDxwb2x5Z29uIGZpbGw9IiM5MENBRjkiIHBvaW50cz0iNDAsNDUgOCw0NSA4LDMgMzAsMyA0MCwxMyIvPiYjeGE7ICAgIDxwb2x5Z29uIGZpbGw9IiNFMUY1RkUiIHBvaW50cz0iMzguNSwxNCAyOSwxNCAyOSw0LjUiLz4mI3hhOyAgICA8ZyBmaWxsPSIjMTk3NkQyIj4mI3hhOyAgICAgICAgPHJlY3QgeD0iMTYiIHk9IjIxIiB3aWR0aD0iMTciIGhlaWdodD0iMiIvPiYjeGE7ICAgICAgICA8cmVjdCB4PSIxNiIgeT0iMjUiIHdpZHRoPSIxMyIgaGVpZ2h0PSIyIi8+JiN4YTsgICAgICAgIDxyZWN0IHg9IjE2IiB5PSIyOSIgd2lkdGg9IjE3IiBoZWlnaHQ9IjIiLz4mI3hhOyAgICAgICAgPHJlY3QgeD0iMTYiIHk9IjMzIiB3aWR0aD0iMTMiIGhlaWdodD0iMiIvPiYjeGE7ICAgIDwvZz4mI3hhOzwvc3ZnPg==;labelBackgroundColor=none;strokeWidth=7;fillColor=none;fontSize=14;fontStyle=1" vertex="1" parent="1">
          <mxGeometry x="585" y="540" width="48" height="48" as="geometry" />
        </mxCell>
        <mxCell id="jPe1b7YD5CnacBzU_eQK-28" value="Produkt Information" style="shape=image;verticalLabelPosition=bottom;verticalAlign=top;imageAspect=0;aspect=fixed;image=data:image/svg+xml,PHN2ZyB4bWxucz0iaHR0cDovL3d3dy53My5vcmcvMjAwMC9zdmciIHZlcnNpb249IjEiIHZpZXdCb3g9IjAgMCA0OCA0OCIgZW5hYmxlLWJhY2tncm91bmQ9Im5ldyAwIDAgNDggNDgiPiYjeGE7ICAgIDxwb2x5Z29uIGZpbGw9IiM5MENBRjkiIHBvaW50cz0iNDAsNDUgOCw0NSA4LDMgMzAsMyA0MCwxMyIvPiYjeGE7ICAgIDxwb2x5Z29uIGZpbGw9IiNFMUY1RkUiIHBvaW50cz0iMzguNSwxNCAyOSwxNCAyOSw0LjUiLz4mI3hhOyAgICA8ZyBmaWxsPSIjMTk3NkQyIj4mI3hhOyAgICAgICAgPHJlY3QgeD0iMTYiIHk9IjIxIiB3aWR0aD0iMTciIGhlaWdodD0iMiIvPiYjeGE7ICAgICAgICA8cmVjdCB4PSIxNiIgeT0iMjUiIHdpZHRoPSIxMyIgaGVpZ2h0PSIyIi8+JiN4YTsgICAgICAgIDxyZWN0IHg9IjE2IiB5PSIyOSIgd2lkdGg9IjE3IiBoZWlnaHQ9IjIiLz4mI3hhOyAgICAgICAgPHJlY3QgeD0iMTYiIHk9IjMzIiB3aWR0aD0iMTMiIGhlaWdodD0iMiIvPiYjeGE7ICAgIDwvZz4mI3hhOzwvc3ZnPg==;labelBackgroundColor=none;strokeWidth=7;fillColor=none;fontSize=12;" vertex="1" parent="1">
          <mxGeometry x="322" y="-35" width="48" height="48" as="geometry" />
        </mxCell>
        <mxCell id="jPe1b7YD5CnacBzU_eQK-29" value="id2" style="shape=image;verticalLabelPosition=bottom;verticalAlign=top;imageAspect=0;aspect=fixed;image=data:image/svg+xml,PHN2ZyB4bWxucz0iaHR0cDovL3d3dy53My5vcmcvMjAwMC9zdmciIHZlcnNpb249IjEiIHZpZXdCb3g9IjAgMCA0OCA0OCIgZW5hYmxlLWJhY2tncm91bmQ9Im5ldyAwIDAgNDggNDgiPiYjeGE7ICAgIDxwb2x5Z29uIGZpbGw9IiM5MENBRjkiIHBvaW50cz0iNDAsNDUgOCw0NSA4LDMgMzAsMyA0MCwxMyIvPiYjeGE7ICAgIDxwb2x5Z29uIGZpbGw9IiNFMUY1RkUiIHBvaW50cz0iMzguNSwxNCAyOSwxNCAyOSw0LjUiLz4mI3hhOyAgICA8ZyBmaWxsPSIjMTk3NkQyIj4mI3hhOyAgICAgICAgPHJlY3QgeD0iMTYiIHk9IjIxIiB3aWR0aD0iMTciIGhlaWdodD0iMiIvPiYjeGE7ICAgICAgICA8cmVjdCB4PSIxNiIgeT0iMjUiIHdpZHRoPSIxMyIgaGVpZ2h0PSIyIi8+JiN4YTsgICAgICAgIDxyZWN0IHg9IjE2IiB5PSIyOSIgd2lkdGg9IjE3IiBoZWlnaHQ9IjIiLz4mI3hhOyAgICAgICAgPHJlY3QgeD0iMTYiIHk9IjMzIiB3aWR0aD0iMTMiIGhlaWdodD0iMiIvPiYjeGE7ICAgIDwvZz4mI3hhOzwvc3ZnPg==;labelBackgroundColor=none;strokeWidth=7;fillColor=none;fontSize=14;fontStyle=1" vertex="1" parent="1">
          <mxGeometry x="650" y="492" width="48" height="48" as="geometry" />
        </mxCell>
        <mxCell id="jPe1b7YD5CnacBzU_eQK-30" value="id3" style="shape=image;verticalLabelPosition=bottom;verticalAlign=top;imageAspect=0;aspect=fixed;image=data:image/svg+xml,PHN2ZyB4bWxucz0iaHR0cDovL3d3dy53My5vcmcvMjAwMC9zdmciIHZlcnNpb249IjEiIHZpZXdCb3g9IjAgMCA0OCA0OCIgZW5hYmxlLWJhY2tncm91bmQ9Im5ldyAwIDAgNDggNDgiPiYjeGE7ICAgIDxwb2x5Z29uIGZpbGw9IiM5MENBRjkiIHBvaW50cz0iNDAsNDUgOCw0NSA4LDMgMzAsMyA0MCwxMyIvPiYjeGE7ICAgIDxwb2x5Z29uIGZpbGw9IiNFMUY1RkUiIHBvaW50cz0iMzguNSwxNCAyOSwxNCAyOSw0LjUiLz4mI3hhOyAgICA8ZyBmaWxsPSIjMTk3NkQyIj4mI3hhOyAgICAgICAgPHJlY3QgeD0iMTYiIHk9IjIxIiB3aWR0aD0iMTciIGhlaWdodD0iMiIvPiYjeGE7ICAgICAgICA8cmVjdCB4PSIxNiIgeT0iMjUiIHdpZHRoPSIxMyIgaGVpZ2h0PSIyIi8+JiN4YTsgICAgICAgIDxyZWN0IHg9IjE2IiB5PSIyOSIgd2lkdGg9IjE3IiBoZWlnaHQ9IjIiLz4mI3hhOyAgICAgICAgPHJlY3QgeD0iMTYiIHk9IjMzIiB3aWR0aD0iMTMiIGhlaWdodD0iMiIvPiYjeGE7ICAgIDwvZz4mI3hhOzwvc3ZnPg==;labelBackgroundColor=none;strokeWidth=7;fillColor=none;fontSize=14;fontStyle=1" vertex="1" parent="1">
          <mxGeometry x="745" y="530" width="48" height="48" as="geometry" />
        </mxCell>
        <mxCell id="jPe1b7YD5CnacBzU_eQK-31" value="" style="endArrow=none;dashed=1;html=1;dashPattern=1 3;strokeWidth=2;fontSize=12;exitX=0.5;exitY=0;exitDx=0;exitDy=0;entryX=0.5;entryY=1;entryDx=0;entryDy=0;" edge="1" parent="1" source="jPe1b7YD5CnacBzU_eQK-27" target="jPe1b7YD5CnacBzU_eQK-21">
          <mxGeometry width="50" height="50" relative="1" as="geometry">
            <mxPoint x="530" y="240" as="sourcePoint" />
            <mxPoint x="580" y="190" as="targetPoint" />
          </mxGeometry>
        </mxCell>
        <mxCell id="jPe1b7YD5CnacBzU_eQK-32" value="" style="endArrow=none;dashed=1;html=1;dashPattern=1 3;strokeWidth=2;fontSize=12;exitX=0.5;exitY=0;exitDx=0;exitDy=0;entryX=0.5;entryY=1;entryDx=0;entryDy=0;" edge="1" parent="1" source="jPe1b7YD5CnacBzU_eQK-29" target="jPe1b7YD5CnacBzU_eQK-18">
          <mxGeometry width="50" height="50" relative="1" as="geometry">
            <mxPoint x="744" y="602" as="sourcePoint" />
            <mxPoint x="744" y="310" as="targetPoint" />
          </mxGeometry>
        </mxCell>
        <mxCell id="jPe1b7YD5CnacBzU_eQK-33" value="" style="endArrow=none;dashed=1;html=1;dashPattern=1 3;strokeWidth=2;fontSize=12;exitX=0.5;exitY=0;exitDx=0;exitDy=0;entryX=0.5;entryY=1;entryDx=0;entryDy=0;" edge="1" parent="1" source="jPe1b7YD5CnacBzU_eQK-30" target="jPe1b7YD5CnacBzU_eQK-20">
          <mxGeometry width="50" height="50" relative="1" as="geometry">
            <mxPoint x="850" y="571" as="sourcePoint" />
            <mxPoint x="850" y="279" as="targetPoint" />
          </mxGeometry>
        </mxCell>
        <mxCell id="jPe1b7YD5CnacBzU_eQK-34" value="" style="rounded=1;whiteSpace=wrap;html=1;labelBackgroundColor=none;strokeWidth=3;fillColor=none;fontSize=10;" vertex="1" parent="1">
          <mxGeometry x="190" y="-47" width="220" height="97" as="geometry" />
        </mxCell>
        <mxCell id="jPe1b7YD5CnacBzU_eQK-35" value="Gleiche Wallet Addresse" style="text;html=1;strokeColor=none;fillColor=none;align=center;verticalAlign=middle;whiteSpace=wrap;rounded=0;labelBackgroundColor=none;fontSize=13;" vertex="1" parent="1">
          <mxGeometry x="220" y="-67" width="170" height="20" as="geometry" />
        </mxCell>
        <mxCell id="jPe1b7YD5CnacBzU_eQK-38" value="Nodes" style="verticalAlign=top;verticalLabelPosition=bottom;labelPosition=center;align=center;html=1;outlineConnect=0;strokeColor=#6881B3;gradientColor=none;gradientDirection=north;strokeWidth=2;shape=mxgraph.networks.server_storage;labelBackgroundColor=none;fillColor=#67AB9F;fontColor=#330000;" vertex="1" parent="1">
          <mxGeometry x="456" y="-36" width="42" height="48" as="geometry" />
        </mxCell>
        <mxCell id="jPe1b7YD5CnacBzU_eQK-40" value="" style="fontColor=#0066CC;verticalAlign=top;verticalLabelPosition=bottom;labelPosition=center;align=center;html=1;outlineConnect=0;strokeColor=#6881B3;gradientColor=none;gradientDirection=north;strokeWidth=2;shape=mxgraph.networks.server_storage;labelBackgroundColor=none;fillColor=#67AB9F;" vertex="1" parent="1">
          <mxGeometry x="366" y="140" width="42" height="48" as="geometry" />
        </mxCell>
        <mxCell id="jPe1b7YD5CnacBzU_eQK-41" value="" style="fontColor=#0066CC;verticalAlign=top;verticalLabelPosition=bottom;labelPosition=center;align=center;html=1;outlineConnect=0;strokeColor=#6881B3;gradientColor=none;gradientDirection=north;strokeWidth=2;shape=mxgraph.networks.server_storage;labelBackgroundColor=none;fillColor=#67AB9F;" vertex="1" parent="1">
          <mxGeometry x="300" y="210" width="42" height="48" as="geometry" />
        </mxCell>
        <mxCell id="jPe1b7YD5CnacBzU_eQK-42" value="" style="fontColor=#0066CC;verticalAlign=top;verticalLabelPosition=bottom;labelPosition=center;align=center;html=1;outlineConnect=0;strokeColor=#6881B3;gradientColor=none;gradientDirection=north;strokeWidth=2;shape=mxgraph.networks.server_storage;labelBackgroundColor=none;fillColor=#67AB9F;" vertex="1" parent="1">
          <mxGeometry x="430" y="221" width="42" height="48" as="geometry" />
        </mxCell>
        <mxCell id="jPe1b7YD5CnacBzU_eQK-43" value="H2" style="verticalAlign=top;verticalLabelPosition=bottom;labelPosition=center;align=center;html=1;outlineConnect=0;strokeColor=#6881B3;gradientColor=none;gradientDirection=north;strokeWidth=2;shape=mxgraph.networks.server_storage;labelBackgroundColor=none;fillColor=#FF8000;fontStyle=1;fontSize=14;fontColor=#330000;" vertex="1" parent="1">
          <mxGeometry x="456" y="530" width="42" height="48" as="geometry" />
        </mxCell>
        <mxCell id="jPe1b7YD5CnacBzU_eQK-44" value="" style="fontColor=#0066CC;verticalAlign=top;verticalLabelPosition=bottom;labelPosition=center;align=center;html=1;outlineConnect=0;strokeColor=#6881B3;gradientColor=none;gradientDirection=north;strokeWidth=2;shape=mxgraph.networks.server_storage;labelBackgroundColor=none;fillColor=#FF8000;" vertex="1" parent="1">
          <mxGeometry x="324" y="530" width="42" height="48" as="geometry" />
        </mxCell>
        <mxCell id="jPe1b7YD5CnacBzU_eQK-45" value="H1" style="verticalAlign=top;verticalLabelPosition=bottom;labelPosition=center;align=center;html=1;outlineConnect=0;strokeColor=#6881B3;gradientColor=none;gradientDirection=north;strokeWidth=2;shape=mxgraph.networks.server_storage;labelBackgroundColor=none;fillColor=#FF8000;fontStyle=1;fontSize=14;fontColor=#330000;" vertex="1" parent="1">
          <mxGeometry x="390" y="610" width="42" height="48" as="geometry" />
        </mxCell>
        <mxCell id="jPe1b7YD5CnacBzU_eQK-46" value="&lt;font color=&quot;#330000&quot;&gt;Nodes mit &lt;br&gt;Herstellersoftware&lt;/font&gt;" style="fontColor=#0066CC;verticalAlign=top;verticalLabelPosition=bottom;labelPosition=center;align=center;html=1;outlineConnect=0;strokeColor=#6881B3;gradientColor=none;gradientDirection=north;strokeWidth=2;shape=mxgraph.networks.server_storage;labelBackgroundColor=none;fillColor=#FF8000;" vertex="1" parent="1">
          <mxGeometry x="580" y="-36" width="42" height="48" as="geometry" />
        </mxCell>
        <mxCell id="jPe1b7YD5CnacBzU_eQK-47" value="" style="endArrow=none;html=1;strokeWidth=3;fontSize=13;fontColor=#330000;exitX=0.87;exitY=0.14;exitDx=0;exitDy=0;exitPerimeter=0;entryX=0.5;entryY=1;entryDx=0;entryDy=0;" edge="1" parent="1" source="jPe1b7YD5CnacBzU_eQK-44" target="jPe1b7YD5CnacBzU_eQK-24">
          <mxGeometry width="50" height="50" relative="1" as="geometry">
            <mxPoint x="530" y="540" as="sourcePoint" />
            <mxPoint x="580" y="490" as="targetPoint" />
          </mxGeometry>
        </mxCell>
        <mxCell id="jPe1b7YD5CnacBzU_eQK-48" value="" style="endArrow=none;html=1;strokeWidth=3;fontSize=13;fontColor=#330000;exitX=0;exitY=0.14;exitDx=0;exitDy=0;exitPerimeter=0;" edge="1" parent="1" source="jPe1b7YD5CnacBzU_eQK-43">
          <mxGeometry width="50" height="50" relative="1" as="geometry">
            <mxPoint x="250" y="740" as="sourcePoint" />
            <mxPoint x="400" y="500" as="targetPoint" />
          </mxGeometry>
        </mxCell>
        <mxCell id="jPe1b7YD5CnacBzU_eQK-49" value="" style="endArrow=none;html=1;strokeWidth=3;fontSize=13;fontColor=#330000;exitX=0.5;exitY=0;exitDx=0;exitDy=0;exitPerimeter=0;" edge="1" parent="1" source="jPe1b7YD5CnacBzU_eQK-45">
          <mxGeometry width="50" height="50" relative="1" as="geometry">
            <mxPoint x="280" y="840" as="sourcePoint" />
            <mxPoint x="400" y="500" as="targetPoint" />
          </mxGeometry>
        </mxCell>
        <mxCell id="jPe1b7YD5CnacBzU_eQK-54" value="" style="endArrow=none;html=1;strokeWidth=3;fontSize=13;fontColor=#330000;exitX=0.5;exitY=0;exitDx=0;exitDy=0;entryX=0;entryY=0.93;entryDx=0;entryDy=0;entryPerimeter=0;" edge="1" parent="1" source="jPe1b7YD5CnacBzU_eQK-24" target="jPe1b7YD5CnacBzU_eQK-42">
          <mxGeometry width="50" height="50" relative="1" as="geometry">
            <mxPoint x="530" y="390" as="sourcePoint" />
            <mxPoint x="580" y="340" as="targetPoint" />
          </mxGeometry>
        </mxCell>
        <mxCell id="jPe1b7YD5CnacBzU_eQK-55" value="" style="endArrow=none;html=1;strokeWidth=3;fontSize=13;fontColor=#330000;entryX=1;entryY=0.97;entryDx=0;entryDy=0;entryPerimeter=0;exitX=0.5;exitY=0;exitDx=0;exitDy=0;" edge="1" parent="1" source="jPe1b7YD5CnacBzU_eQK-24" target="jPe1b7YD5CnacBzU_eQK-41">
          <mxGeometry width="50" height="50" relative="1" as="geometry">
            <mxPoint x="-130" y="560" as="sourcePoint" />
            <mxPoint x="-80" y="510" as="targetPoint" />
          </mxGeometry>
        </mxCell>
        <mxCell id="jPe1b7YD5CnacBzU_eQK-56" value="" style="endArrow=none;html=1;strokeWidth=3;fontSize=13;fontColor=#330000;entryX=0.5;entryY=0.94;entryDx=0;entryDy=0;entryPerimeter=0;exitX=0.5;exitY=0;exitDx=0;exitDy=0;" edge="1" parent="1" source="jPe1b7YD5CnacBzU_eQK-53" target="jPe1b7YD5CnacBzU_eQK-40">
          <mxGeometry width="50" height="50" relative="1" as="geometry">
            <mxPoint x="70" y="480" as="sourcePoint" />
            <mxPoint x="120" y="430" as="targetPoint" />
          </mxGeometry>
        </mxCell>
        <mxCell id="jPe1b7YD5CnacBzU_eQK-57" value="" style="endArrow=none;html=1;strokeWidth=2;fontSize=9;fontColor=#330000;entryX=1;entryY=0.97;entryDx=0;entryDy=0;entryPerimeter=0;exitX=0;exitY=0.14;exitDx=0;exitDy=0;exitPerimeter=0;fillColor=#f5f5f5;strokeColor=#666666;" edge="1" parent="1" source="jPe1b7YD5CnacBzU_eQK-45" target="jPe1b7YD5CnacBzU_eQK-44">
          <mxGeometry width="50" height="50" relative="1" as="geometry">
            <mxPoint x="280" y="710" as="sourcePoint" />
            <mxPoint x="330" y="660" as="targetPoint" />
          </mxGeometry>
        </mxCell>
        <mxCell id="jPe1b7YD5CnacBzU_eQK-58" value="" style="endArrow=none;html=1;strokeWidth=2;fontSize=9;fontColor=#330000;exitX=0;exitY=0.93;exitDx=0;exitDy=0;exitPerimeter=0;entryX=0.87;entryY=0.14;entryDx=0;entryDy=0;entryPerimeter=0;fillColor=#f5f5f5;strokeColor=#666666;" edge="1" parent="1" source="jPe1b7YD5CnacBzU_eQK-43" target="jPe1b7YD5CnacBzU_eQK-45">
          <mxGeometry width="50" height="50" relative="1" as="geometry">
            <mxPoint x="280" y="710" as="sourcePoint" />
            <mxPoint x="330" y="660" as="targetPoint" />
          </mxGeometry>
        </mxCell>
        <mxCell id="jPe1b7YD5CnacBzU_eQK-60" value="" style="endArrow=none;html=1;strokeWidth=2;fontSize=9;fontColor=#330000;entryX=0;entryY=0.5;entryDx=0;entryDy=0;entryPerimeter=0;exitX=0.88;exitY=0.5;exitDx=0;exitDy=0;exitPerimeter=0;fillColor=#f5f5f5;strokeColor=#666666;" edge="1" parent="1" source="jPe1b7YD5CnacBzU_eQK-41" target="jPe1b7YD5CnacBzU_eQK-42">
          <mxGeometry width="50" height="50" relative="1" as="geometry">
            <mxPoint x="489.96000000000004" y="180" as="sourcePoint" />
            <mxPoint x="585" y="180" as="targetPoint" />
          </mxGeometry>
        </mxCell>
        <mxCell id="jPe1b7YD5CnacBzU_eQK-61" value="" style="endArrow=none;html=1;strokeWidth=2;fontSize=9;fontColor=#330000;entryX=0.87;entryY=0.14;entryDx=0;entryDy=0;entryPerimeter=0;exitX=0;exitY=0.93;exitDx=0;exitDy=0;exitPerimeter=0;fillColor=#f5f5f5;strokeColor=#666666;" edge="1" parent="1" source="jPe1b7YD5CnacBzU_eQK-40" target="jPe1b7YD5CnacBzU_eQK-41">
          <mxGeometry width="50" height="50" relative="1" as="geometry">
            <mxPoint x="370.96000000000004" y="564" as="sourcePoint" />
            <mxPoint x="466" y="564" as="targetPoint" />
          </mxGeometry>
        </mxCell>
        <mxCell id="jPe1b7YD5CnacBzU_eQK-62" value="" style="endArrow=none;html=1;strokeWidth=2;fontSize=9;fontColor=#330000;entryX=0;entryY=0.14;entryDx=0;entryDy=0;entryPerimeter=0;exitX=1;exitY=0.97;exitDx=0;exitDy=0;exitPerimeter=0;fillColor=#f5f5f5;strokeColor=#666666;" edge="1" parent="1" source="jPe1b7YD5CnacBzU_eQK-40" target="jPe1b7YD5CnacBzU_eQK-42">
          <mxGeometry width="50" height="50" relative="1" as="geometry">
            <mxPoint x="380.96000000000004" y="574" as="sourcePoint" />
            <mxPoint x="476" y="574" as="targetPoint" />
          </mxGeometry>
        </mxCell>
        <mxCell id="jPe1b7YD5CnacBzU_eQK-63" value="" style="endArrow=classic;html=1;strokeWidth=2;fontSize=9;fontColor=#330000;exitX=0.87;exitY=0.14;exitDx=0;exitDy=0;exitPerimeter=0;entryX=0;entryY=0.25;entryDx=0;entryDy=0;" edge="1" parent="1" source="jPe1b7YD5CnacBzU_eQK-42" target="jPe1b7YD5CnacBzU_eQK-21">
          <mxGeometry width="50" height="50" relative="1" as="geometry">
            <mxPoint x="530" y="390" as="sourcePoint" />
            <mxPoint x="580" y="340" as="targetPoint" />
          </mxGeometry>
        </mxCell>
        <mxCell id="jPe1b7YD5CnacBzU_eQK-64" value="" style="endArrow=classic;html=1;strokeWidth=2;fontSize=9;fontColor=#330000;exitX=1;exitY=0.97;exitDx=0;exitDy=0;exitPerimeter=0;" edge="1" parent="1" source="jPe1b7YD5CnacBzU_eQK-43">
          <mxGeometry width="50" height="50" relative="1" as="geometry">
            <mxPoint x="471.99999999999994" y="593.72" as="sourcePoint" />
            <mxPoint x="590" y="578" as="targetPoint" />
          </mxGeometry>
        </mxCell>
        <mxCell id="jPe1b7YD5CnacBzU_eQK-65" value="" style="endArrow=classic;html=1;strokeWidth=2;fontSize=9;fontColor=#330000;exitX=0.88;exitY=0.5;exitDx=0;exitDy=0;exitPerimeter=0;entryX=0.25;entryY=0;entryDx=0;entryDy=0;" edge="1" parent="1" source="jPe1b7YD5CnacBzU_eQK-40" target="jPe1b7YD5CnacBzU_eQK-20">
          <mxGeometry width="50" height="50" relative="1" as="geometry">
            <mxPoint x="476.53999999999996" y="237.72000000000003" as="sourcePoint" />
            <mxPoint x="595" y="222" as="targetPoint" />
          </mxGeometry>
        </mxCell>
        <mxCell id="jPe1b7YD5CnacBzU_eQK-66" value="" style="endArrow=classic;html=1;strokeWidth=2;fontSize=9;fontColor=#330000;exitX=1;exitY=0.97;exitDx=0;exitDy=0;exitPerimeter=0;entryX=0.25;entryY=1;entryDx=0;entryDy=0;" edge="1" parent="1" source="jPe1b7YD5CnacBzU_eQK-45" target="jPe1b7YD5CnacBzU_eQK-30">
          <mxGeometry width="50" height="50" relative="1" as="geometry">
            <mxPoint x="486.53999999999996" y="247.72000000000003" as="sourcePoint" />
            <mxPoint x="605" y="232" as="targetPoint" />
          </mxGeometry>
        </mxCell>
        <mxCell id="jPe1b7YD5CnacBzU_eQK-67" value="H2" style="verticalAlign=top;verticalLabelPosition=bottom;labelPosition=center;align=center;html=1;outlineConnect=0;strokeColor=#6881B3;gradientColor=none;gradientDirection=north;strokeWidth=2;shape=mxgraph.networks.server_storage;labelBackgroundColor=none;fillColor=#3333FF;fontStyle=1;fontSize=14;fontColor=#330000;" vertex="1" parent="1">
          <mxGeometry x="212" y="210" width="42" height="48" as="geometry" />
        </mxCell>
        <mxCell id="jPe1b7YD5CnacBzU_eQK-68" value="H1" style="verticalAlign=top;verticalLabelPosition=bottom;labelPosition=center;align=center;html=1;outlineConnect=0;strokeColor=#6881B3;gradientColor=none;gradientDirection=north;strokeWidth=2;shape=mxgraph.networks.server_storage;labelBackgroundColor=none;fillColor=#3333FF;fontStyle=1;fontSize=14;fontColor=#330000;" vertex="1" parent="1">
          <mxGeometry x="254" y="80" width="42" height="48" as="geometry" />
        </mxCell>
        <mxCell id="jPe1b7YD5CnacBzU_eQK-69" value="&lt;div&gt;&lt;font color=&quot;#330000&quot;&gt;Herstellersoftware&lt;/font&gt;&lt;/div&gt;" style="fontColor=#0066CC;verticalAlign=top;verticalLabelPosition=bottom;labelPosition=center;align=center;html=1;outlineConnect=0;strokeColor=#6881B3;gradientColor=none;gradientDirection=north;strokeWidth=2;shape=mxgraph.networks.server_storage;labelBackgroundColor=none;fillColor=#3333FF;" vertex="1" parent="1">
          <mxGeometry x="680" y="-35" width="42" height="48" as="geometry" />
        </mxCell>
        <mxCell id="jPe1b7YD5CnacBzU_eQK-70" value="" style="endArrow=classic;html=1;strokeWidth=2;fontSize=9;fontColor=#330000;exitX=0.87;exitY=0.14;exitDx=0;exitDy=0;exitPerimeter=0;entryX=0;entryY=0.14;entryDx=0;entryDy=0;entryPerimeter=0;" edge="1" parent="1" source="jPe1b7YD5CnacBzU_eQK-68" target="jPe1b7YD5CnacBzU_eQK-40">
          <mxGeometry width="50" height="50" relative="1" as="geometry">
            <mxPoint x="402.96000000000004" y="164" as="sourcePoint" />
            <mxPoint x="757" y="221" as="targetPoint" />
          </mxGeometry>
        </mxCell>
        <mxCell id="jPe1b7YD5CnacBzU_eQK-71" value="" style="endArrow=classic;html=1;strokeWidth=2;fontSize=9;fontColor=#330000;exitX=0.87;exitY=0.14;exitDx=0;exitDy=0;exitPerimeter=0;entryX=0;entryY=0.93;entryDx=0;entryDy=0;entryPerimeter=0;" edge="1" parent="1" source="jPe1b7YD5CnacBzU_eQK-67" target="jPe1b7YD5CnacBzU_eQK-41">
          <mxGeometry width="50" height="50" relative="1" as="geometry">
            <mxPoint x="412.96000000000004" y="174" as="sourcePoint" />
            <mxPoint x="767" y="231" as="targetPoint" />
          </mxGeometry>
        </mxCell>
        <mxCell id="jPe1b7YD5CnacBzU_eQK-72" value="" style="rounded=1;whiteSpace=wrap;html=1;labelBackgroundColor=none;strokeWidth=3;fillColor=none;fontSize=10;" vertex="1" parent="1">
          <mxGeometry x="540" y="-47" width="225" height="97" as="geometry" />
        </mxCell>
        <mxCell id="jPe1b7YD5CnacBzU_eQK-74" value="Eine Software" style="text;html=1;strokeColor=none;fillColor=none;align=center;verticalAlign=middle;whiteSpace=wrap;rounded=0;labelBackgroundColor=none;fontSize=13;" vertex="1" parent="1">
          <mxGeometry x="570" y="-70" width="170" height="20" as="geometry" />
        </mxCell>
        <mxCell id="jPe1b7YD5CnacBzU_eQK-77" value="Pfandautomat" style="verticalAlign=top;verticalLabelPosition=bottom;labelPosition=center;align=center;html=1;outlineConnect=0;fillColor=#CCCCCC;strokeColor=#6881B3;gradientColor=none;gradientDirection=north;strokeWidth=2;shape=mxgraph.networks.mainframe;labelBackgroundColor=none;fontColor=#330000;" vertex="1" parent="1">
          <mxGeometry x="810" y="-25" width="50" height="47" as="geometry" />
        </mxCell>
        <mxCell id="jPe1b7YD5CnacBzU_eQK-86" value="1" style="endArrow=classic;html=1;strokeWidth=2;fontSize=14;fontColor=#330000;exitX=1;exitY=1;exitDx=0;exitDy=0;entryX=0;entryY=0.05;entryDx=0;entryDy=0;entryPerimeter=0;strokeColor=#FF3333;verticalAlign=top;labelBackgroundColor=none;fontStyle=1" edge="1" parent="1" source="jPe1b7YD5CnacBzU_eQK-20" target="jPe1b7YD5CnacBzU_eQK-76">
          <mxGeometry width="50" height="50" relative="1" as="geometry">
            <mxPoint x="248.53999999999996" y="216.72000000000003" as="sourcePoint" />
            <mxPoint x="300" y="254.6400000000001" as="targetPoint" />
          </mxGeometry>
        </mxCell>
        <mxCell id="jPe1b7YD5CnacBzU_eQK-90" value="2" style="endArrow=classic;html=1;strokeWidth=2;fontSize=14;fontColor=#330000;exitX=0;exitY=0.95;exitDx=0;exitDy=0;entryX=0.75;entryY=0;entryDx=0;entryDy=0;strokeColor=#FF3333;verticalAlign=top;labelBackgroundColor=none;fontStyle=1;exitPerimeter=0;" edge="1" parent="1" source="jPe1b7YD5CnacBzU_eQK-76" target="jPe1b7YD5CnacBzU_eQK-30">
          <mxGeometry width="50" height="50" relative="1" as="geometry">
            <mxPoint x="840" y="530" as="sourcePoint" />
            <mxPoint x="887" y="654.3499999999999" as="targetPoint" />
          </mxGeometry>
        </mxCell>
        <mxCell id="jPe1b7YD5CnacBzU_eQK-91" value="3" style="endArrow=classic;html=1;strokeWidth=2;fontSize=14;fontColor=#330000;entryX=0.5;entryY=0.95;entryDx=0;entryDy=0;strokeColor=#FF3333;verticalAlign=top;labelBackgroundColor=none;fontStyle=1;entryPerimeter=0;exitX=1;exitY=0.25;exitDx=0;exitDy=0;" edge="1" parent="1" source="jPe1b7YD5CnacBzU_eQK-30" target="jPe1b7YD5CnacBzU_eQK-76">
          <mxGeometry width="50" height="50" relative="1" as="geometry">
            <mxPoint x="840" y="453.6500000000001" as="sourcePoint" />
            <mxPoint x="781" y="530" as="targetPoint" />
          </mxGeometry>
        </mxCell>
        <mxCell id="jPe1b7YD5CnacBzU_eQK-93" value="Lösung zur Entwertung&lt;br&gt;muss erforscht werden" style="text;html=1;strokeColor=none;fillColor=none;align=center;verticalAlign=middle;whiteSpace=wrap;rounded=0;labelBackgroundColor=none;fontSize=13;fontColor=#330000;" vertex="1" parent="1">
          <mxGeometry x="1060" y="370" width="150" height="44" as="geometry" />
        </mxCell>
      </root>
    </mxGraphModel>
  </diagram>
</mxfile>
